# xmcd
#
# Track frame offsets:
#	150
#	16555
#	35652
#	53327
#	66845
#	85580
#	98605
#	114960
#	133635
#	152052
#	167902
#	189690
#
# Disc length: 2744 seconds
#
# Revision: 1
# Processed by: cddbd v1.5.2PL0 Copyright (c) Steve Scherf et al.
# Submitted via: audiograbber 1.83.01
#
DISCID=890ab60c
DTITLE=Sugarland - Twice the Speed of Life
DYEAR=2004
DGENRE=Country
TTITLE0=Something More
TTITLE1=Baby Girl
TTITLE2=Hello
TTITLE3=Tennessee
TTITLE4=Just Might (Make Me Believe)
TTITLE5=Down to Mississippi (Up to no Good)
TTITLE6=Fly Away
TTITLE7=Speed of Life
TTITLE8=Small Town Jericho
TTITLE9=Time, Time, Time
TTITLE10=Stand Back Up
TTITLE11=Want To
EXTD=
EXTT0=
EXTT1=
EXTT2=
EXTT3=
EXTT4=
EXTT5=
EXTT6=
EXTT7=
EXTT8=
EXTT9=
EXTT10=
EXTT11=
PLAYORDER=
